<svg width="13" height="12" viewBox="0 0 13 12" fill="none" xmlns="http://www.w3.org/2000/svg">
<path d="M0.818841 3.97968H3.31228V11.9882H0.818841V3.97968ZM2.0717 0C2.87009 0 3.52109 0.650996 3.52109 1.43711C3.52109 2.2355 2.87009 2.8865 2.0717 2.8865C1.27331 2.8865 0.622314 2.2355 0.622314 1.43711C0.622314 0.638713 1.27331 0 2.0717 0Z" fill="black"/>
<path d="M7.26749 3.97924V5.07243H7.30434C7.63598 4.44599 8.44666 3.78271 9.66267 3.78271C12.1807 3.78271 12.6474 5.44092 12.6474 7.60272V12H10.154V8.10632C10.154 7.17281 10.1417 5.98136 8.86428 5.98136C7.57457 5.98136 7.36576 6.98857 7.36576 8.03262V12H4.87231V3.97924H7.26749Z" fill="black"/>
</svg>
