<svg width="7" height="12" viewBox="0 0 7 12" fill="none" xmlns="http://www.w3.org/2000/svg">
<path fill-rule="evenodd" clip-rule="evenodd" d="M5.35396 2.02784C5.72217 2.01761 6.1006 2.02784 6.4688 2.02784C6.50971 2.02784 6.56085 2.02784 6.62222 2.02784V0.0947707C6.42789 0.074315 6.2131 0.0436308 6.00854 0.0334029C5.63011 0.0129472 5.24146 -0.00750728 4.86303 0.00272058C4.28004 0.0129484 3.72773 0.156138 3.24702 0.503885C2.69472 0.902772 2.38788 1.45508 2.27538 2.11989C2.22424 2.39604 2.21401 2.67219 2.20378 2.94834C2.19355 3.37791 2.20378 3.81771 2.20378 4.24728V4.41093H0.352539V6.56901H2.19355V12H4.44368V6.57923H6.27447C6.36652 5.86328 6.45857 5.14733 6.56085 4.41093C6.41766 4.41093 6.2847 4.41093 6.15174 4.41093C5.63012 4.41093 4.43345 4.41093 4.43345 4.41093C4.43345 4.41093 4.44368 3.337 4.45391 2.87675C4.46414 2.23239 4.84257 2.03806 5.35396 2.02784Z" fill="black"/>
</svg>
