<svg width="13" height="12" viewBox="0 0 13 12" fill="none" xmlns="http://www.w3.org/2000/svg">
<path d="M12.2561 3.0118C12.1768 2.21927 11.8708 1.52863 11.2816 0.96254C10.6697 0.373801 9.91051 0.113398 9.08332 0.0681106C7.67824 -0.0111426 4.32417 -0.0564312 3.14571 0.136041C1.79728 0.351157 0.924771 1.14369 0.550837 2.46835C0.267554 3.48732 0.324211 8.19723 0.494181 9.20488C0.720807 10.5862 1.53666 11.4693 2.90775 11.8202C3.85958 12.0693 8.50542 12.0354 9.5479 11.8655C10.9303 11.6391 11.8142 10.8352 12.1768 9.46528C12.4487 8.41234 12.3467 3.96284 12.2561 3.0118ZM11.1456 9.00109C10.987 10.054 10.2844 10.6994 9.23063 10.8126C8.26747 10.9145 3.9389 10.9824 3.04373 10.722C2.18255 10.4843 1.6953 9.89551 1.54799 9.02373C1.41202 8.19723 1.37802 4.07606 1.54799 2.96651C1.70663 1.9249 2.39784 1.27955 3.45166 1.16633C4.5168 1.04179 8.34679 1.03047 9.35527 1.18898C10.3978 1.34748 11.055 2.04944 11.1683 3.10238C11.2816 4.09871 11.3043 7.94815 11.1456 9.00109ZM6.35247 2.92123C4.65278 2.92123 3.27035 4.29118 3.27035 5.98946C3.27035 7.68775 4.64144 9.06901 6.34114 9.06901C8.04084 9.06901 9.42326 7.69907 9.42326 6.00078C9.42326 4.3025 8.05217 2.93255 6.35247 2.92123ZM6.32981 7.99343C5.23067 7.98211 4.34683 7.08769 4.35816 5.98946C4.36949 4.89124 5.26467 4.00813 6.3638 4.01945C7.46294 4.03077 8.34679 4.9252 8.33546 6.02343C8.32412 7.11033 7.42895 7.99343 6.32981 7.99343ZM10.2618 2.80801C10.2618 3.20427 9.93317 3.53261 9.53658 3.52129C9.13998 3.52129 8.81137 3.19295 8.8227 2.79669C8.8227 2.40042 9.15131 2.07209 9.5479 2.08341C9.9445 2.08341 10.2731 2.41174 10.2618 2.80801Z" fill="black"/>
</svg>
