<svg width="16" height="10" viewBox="0 0 16 10" fill="none" xmlns="http://www.w3.org/2000/svg">
<path fill-rule="evenodd" clip-rule="evenodd" d="M2.19283 9.70785C1.6225 9.5314 1.25178 9.17849 1.03791 8.64913C0.538866 7.34608 0.396282 1.88959 1.35159 0.817289C1.67953 0.450808 2.10728 0.233635 2.60632 0.179341C5.18707 -0.0921264 13.186 -0.0514067 14.1128 0.274354C14.6546 0.464382 15.0396 0.790144 15.2392 1.30593C15.781 2.6497 15.8095 7.56326 15.1679 8.8663C14.9968 9.21921 14.7116 9.46353 14.3552 9.63999C13.3998 10.1151 3.46182 10.1015 2.19283 9.70785ZM6.29922 7.15606C7.85337 6.38237 9.39327 5.62226 10.9617 4.86216C9.39327 4.08847 7.85337 3.31479 6.29922 2.55468C6.29922 4.0749 6.29922 5.60869 6.29922 7.15606Z" fill="black"/>
</svg>
